<svg width="18" height="22" viewBox="0 0 18 22" fill="none" xmlns="http://www.w3.org/2000/svg">
<path d="M17.5 12.2686C17.5 11.9924 17.2761 11.7686 17 11.7686C16.7239 11.7686 16.5 11.9924 16.5 12.2686H17.5ZM17 13.0046L17.5 13.0049V13.0046H17ZM12.4351 6.15942C12.6929 6.06053 12.8217 5.77136 12.7228 5.51353L11.1114 1.31195C11.0125 1.05412 10.7233 0.925275 10.4655 1.02416C10.2077 1.12305 10.0788 1.41222 10.1777 1.67005L11.6101 5.40479L7.87538 6.83718C7.61755 6.93607 7.4887 7.22524 7.58758 7.48307C7.68647 7.7409 7.97564 7.86975 8.23347 7.77087L12.4351 6.15942ZM16.5 12.2686V13.0046H17.5V12.2686H16.5ZM16.5 13.0043C16.4991 14.6216 15.9754 16.1953 15.007 17.4907L15.8079 18.0894C16.9054 16.6213 17.499 14.8378 17.5 13.0049L16.5 13.0043ZM15.007 17.4907C14.0386 18.786 12.6775 19.7336 11.1265 20.1922L11.4101 21.1512C13.1678 20.6315 14.7104 19.5575 15.8079 18.0894L15.007 17.4907ZM11.1265 20.1922C9.57557 20.6508 7.91794 20.5957 6.40085 20.0352L6.0543 20.9733C7.77367 21.6085 9.65231 21.6709 11.4101 21.1512L11.1265 20.1922ZM6.40085 20.0352C4.88376 19.4747 3.58849 18.4389 2.70822 17.0821L1.86932 17.6264C2.86696 19.164 4.33493 20.338 6.0543 20.9733L6.40085 20.0352ZM2.70822 17.0821C1.82795 15.7253 1.40984 14.1203 1.51626 12.5065L0.518425 12.4407C0.397822 14.2697 0.871676 16.0887 1.86932 17.6264L2.70822 17.0821ZM1.51626 12.5065C1.62267 10.8927 2.24791 9.35654 3.29871 8.1271L2.53854 7.47738C1.34763 8.87074 0.639028 10.6117 0.518425 12.4407L1.51626 12.5065ZM3.29871 8.1271C4.34951 6.89766 5.76959 6.04083 7.34714 5.6844L7.12676 4.70899C5.33887 5.11294 3.72945 6.08401 2.53854 7.47738L3.29871 8.1271ZM7.34714 5.6844C8.92469 5.32798 10.5752 5.49105 12.0525 6.14929L12.4595 5.23587C10.7852 4.48985 8.91465 4.30504 7.12676 4.70899L7.34714 5.6844Z" fill="#F1645E"/>
</svg>
